<svg width="20" height="20" viewBox="0 0 20 20" fill="none" xmlns="http://www.w3.org/2000/svg">
<g clip-path="url(#clip0_173_33621)">
<path d="M10 4.05859C4.48 4.05859 0 9.99859 0 9.99859C0 9.99859 4.48 15.9386 10 15.9386C15.52 15.9386 20 9.99859 20 9.99859C20 9.99859 15.52 4.05859 10 4.05859ZM10 13.6686C7.98 13.6686 6.33 12.0286 6.33 9.99859C6.33 7.96859 7.97 6.32859 10 6.32859C12.03 6.32859 13.67 7.96859 13.67 9.99859C13.67 12.0286 12.03 13.6686 10 13.6686ZM1.97 9.99859C2.81 9.08859 4.27 7.67859 6.06 6.68859C5.3 7.58859 4.83 8.72859 4.83 9.99859C4.83 11.2686 5.3 12.4086 6.06 13.3086C4.27 12.3186 2.81 10.9086 1.97 9.99859V9.99859ZM13.96 13.2886C14.7 12.3886 15.17 11.2586 15.17 9.99859C15.17 8.73859 14.7 7.58859 13.94 6.68859C15.73 7.67859 17.2 9.08859 18.04 10.0086C17.11 11.0286 15.65 12.3486 13.96 13.2886V13.2886Z" fill="#1273EB"/>
</g>
<defs>
<clipPath id="clip0_173_33621">
<rect width="20" height="20" fill="white"/>
</clipPath>
</defs>
</svg>
