<svg width="48" height="48" viewBox="0 0 48 48" fill="none" xmlns="http://www.w3.org/2000/svg">
<path d="M12.2453 18.1941H43.0755V15.1947C43.0755 13.8699 41.9623 12.8026 40.6226 12.8026H22.1509L15.3774 8.42322C14.9434 8.18401 14.5094 8 14.0189 8H2.45283C1.11321 8 0 9.08565 0 10.3921V39.7967C0 39.9255 7.9434 21.0094 7.9434 21.0094C8.67925 19.3349 10.3396 18.1941 12.2453 18.1941Z" fill="#FFC700"/>
<path d="M47.9986 22.9956C47.9986 21.7444 47.0741 20.7139 45.7911 20.6035H12.2439C11.3194 20.6035 10.5269 21.1371 10.1495 21.9284L1.84766 41.5989H39.376L47.7345 24.0813C47.9231 23.7133 47.9797 23.3636 47.9797 22.9956H47.9986Z" fill="#FFC700"/>
</svg>
