<?xml version="1.0" encoding="UTF-8"?><svg id="_레이어_2" xmlns="http://www.w3.org/2000/svg" xmlns:xlink="http://www.w3.org/1999/xlink" viewBox="0 0 649.58 157.59"><defs><style>.cls-1{fill:url(#_무제_그라디언트_255);}.cls-2{fill:url(#_무제_그라디언트_255-14);}.cls-3{fill:url(#_무제_그라디언트_255-9);}.cls-4{fill:url(#_무제_그라디언트_255-11);}.cls-5{fill:#fff;}.cls-6{fill:url(#_무제_그라디언트_255-3);}.cls-7{fill:url(#_무제_그라디언트_255-5);}.cls-8{fill:url(#_무제_그라디언트_255-16);}.cls-9{fill:url(#_무제_그라디언트_253);}.cls-10{fill:url(#_무제_그라디언트_255-2);}.cls-11{fill:url(#_무제_그라디언트_255-10);}.cls-12{fill:url(#_무제_그라디언트_255-15);}.cls-13{fill:url(#_무제_그라디언트_255-13);}.cls-14{fill:url(#_무제_그라디언트_255-7);}.cls-15{fill:url(#_무제_그라디언트_255-4);}.cls-16{fill:url(#_무제_그라디언트_255-12);}.cls-17{fill:url(#_무제_그라디언트_255-6);}.cls-18{fill:url(#_무제_그라디언트_255-8);}.cls-19{fill:url(#_무제_그라디언트_122);}</style><radialGradient id="_무제_그라디언트_255" cx="2.22" cy="156.67" fx="2.22" fy="156.67" r="199.82" gradientUnits="userSpaceOnUse"><stop offset="0" stop-color="#00f2ff"/><stop offset=".06" stop-color="#15d6ff"/><stop offset=".17" stop-color="#3aa8ff"/><stop offset=".28" stop-color="#5882ff"/><stop offset=".39" stop-color="#6f64ff"/><stop offset=".5" stop-color="#804fff"/><stop offset=".6" stop-color="#8a43ff"/><stop offset=".7" stop-color="#8e3fff"/><stop offset="1" stop-color="#e53fff"/></radialGradient><radialGradient id="_무제_그라디언트_255-2" r="199.82" xlink:href="#_무제_그라디언트_255"/><radialGradient id="_무제_그라디언트_255-3" r="199.82" xlink:href="#_무제_그라디언트_255"/><radialGradient id="_무제_그라디언트_255-4" r="199.82" xlink:href="#_무제_그라디언트_255"/><radialGradient id="_무제_그라디언트_255-5" r="199.82" xlink:href="#_무제_그라디언트_255"/><radialGradient id="_무제_그라디언트_255-6" r="199.82" xlink:href="#_무제_그라디언트_255"/><radialGradient id="_무제_그라디언트_255-7" r="199.82" xlink:href="#_무제_그라디언트_255"/><radialGradient id="_무제_그라디언트_255-8" r="199.82" xlink:href="#_무제_그라디언트_255"/><radialGradient id="_무제_그라디언트_255-9" r="199.82" xlink:href="#_무제_그라디언트_255"/><radialGradient id="_무제_그라디언트_255-10" r="199.82" xlink:href="#_무제_그라디언트_255"/><radialGradient id="_무제_그라디언트_255-11" r="199.82" xlink:href="#_무제_그라디언트_255"/><radialGradient id="_무제_그라디언트_255-12" r="199.82" xlink:href="#_무제_그라디언트_255"/><radialGradient id="_무제_그라디언트_255-13" cy="156.67" fy="156.67" r="199.82" xlink:href="#_무제_그라디언트_255"/><radialGradient id="_무제_그라디언트_255-14" r="199.82" xlink:href="#_무제_그라디언트_255"/><radialGradient id="_무제_그라디언트_255-15" cy="156.67" fy="156.67" r="199.82" xlink:href="#_무제_그라디언트_255"/><radialGradient id="_무제_그라디언트_255-16" cy="156.67" fy="156.67" r="199.82" xlink:href="#_무제_그라디언트_255"/><linearGradient id="_무제_그라디언트_122" x1="22.22" y1="102.47" x2="100" y2="102.47" gradientUnits="userSpaceOnUse"><stop offset="0" stop-color="#0092ff"/><stop offset=".19" stop-color="#0096fc"/><stop offset=".4" stop-color="#00a3f6"/><stop offset=".62" stop-color="#00baeb"/><stop offset=".85" stop-color="#00d8dd"/><stop offset="1" stop-color="#00f2d1"/></linearGradient><linearGradient id="_무제_그라디언트_253" x1="248" y1="102.47" x2="325.78" y2="102.47" gradientTransform="translate(425.78) rotate(-180) scale(1 -1)" gradientUnits="userSpaceOnUse"><stop offset="0" stop-color="#9533ff"/><stop offset=".42" stop-color="#574fff"/><stop offset="1" stop-color="#00baff"/></linearGradient></defs><g id="_레이어_1-2"><g><g><g><polygon class="cls-1" points="69.3 78.72 109.63 15.1 106.07 9.53 63.77 75.93 69.3 78.72"/><polygon class="cls-10" points="41.79 90.89 0 156.18 7.91 156.18 46.41 95.74 41.79 90.89"/><polygon class="cls-6" points="99.97 0 54.4 71.19 60.19 74.12 103.7 5.82 99.97 0"/><polygon class="cls-15" points="78.43 83.34 115.6 24.42 112.01 18.82 72.89 80.53 78.43 83.34"/><polygon class="cls-7" points="56.52 106.35 24.93 156.18 32.48 156.18 60.97 111.02 56.52 106.35"/><polygon class="cls-17" points="87.87 88.1 100.06 68.67 100.1 68.72 121.87 34.22 117.98 28.14 82.02 85.15 87.87 88.1"/><polygon class="cls-14" points="63.81 114.01 37.21 156.18 44.93 156.18 68.46 118.88 63.81 114.01"/><polygon class="cls-18" points="49.25 98.73 12.65 156.18 20.2 156.18 53.68 103.37 49.25 98.73"/><g><polygon class="cls-3" points="150.75 98.73 146.32 103.37 179.8 156.18 187.35 156.18 150.75 98.73 150.75 98.73"/><polygon class="cls-11" points="131.48 118.95 154.74 156.18 162.79 156.18 136.19 114.01 131.48 118.95"/><polygon class="cls-4" points="139.03 111.02 167.52 156.18 175.07 156.18 143.48 106.35 139.03 111.02"/><polygon class="cls-16" points="192.09 156.18 200 156.18 158.18 90.93 153.59 95.74 153.59 95.74 192.09 156.18"/><polygon class="cls-13" points="136.23 75.93 118.17 47.58 114.57 53.28 130.7 78.72 136.23 75.93"/><polygon class="cls-2" points="106.22 66.51 102.45 72.49 112.19 88.07 117.98 85.15 117.98 85.15 106.22 66.51"/><polygon class="cls-12" points="139.81 74.12 145.55 71.22 124.25 37.94 120.53 43.84 139.81 74.12 139.81 74.12"/><polygon class="cls-8" points="127.11 80.53 127.11 80.53 112.21 57.02 108.59 62.76 121.57 83.34 127.11 80.53"/></g></g><polygon class="cls-19" points="100 100.96 22.22 61.66 100 143.29 100 100.96"/><polygon class="cls-9" points="100 100.96 177.78 61.66 100 143.29 100 100.96"/></g><g><path class="cls-5" d="M237.76,65.27h16.76l5.72-11.84h19.58l5.75,11.84h16.84L270.05,0l-32.29,65.27Zm39.13-23.16h-13.66l6.81-15.7,6.85,15.7Z"/><rect class="cls-5" x="308.82" y="3.86" width="15.09" height="61.41"/><path class="cls-5" d="M351.73,43.96h4.47l13.25,21.32h17.37l-16.01-23.17c.56-.21,1.1-.44,1.62-.69,3.51-1.7,6.17-4.05,7.98-7.06,1.81-3.01,2.72-6.48,2.72-10.4s-.91-7.47-2.72-10.48c-1.81-3.01-4.47-5.37-7.98-7.06-3.51-1.7-7.9-2.54-13.16-2.54h-22.37v61.41h14.83v-21.32Zm6.49-27.55c1.99,0,3.7,.32,5.13,.97,1.43,.64,2.53,1.57,3.29,2.76,.76,1.2,1.14,2.65,1.14,4.34s-.38,3.14-1.14,4.34c-.76,1.2-1.86,2.11-3.29,2.72-1.43,.61-3.15,.92-5.13,.92h-6.49V16.41h6.49Z"/><path class="cls-5" d="M283.73,98.02c-4.91-2.51-10.73-3.77-17.46-3.77h-21.93v61.41h21.93c6.73,0,12.55-1.26,17.46-3.77,4.91-2.51,8.72-6.07,11.41-10.66,2.69-4.59,4.04-10.02,4.04-16.27s-1.35-11.76-4.04-16.32c-2.69-4.56-6.49-8.1-11.41-10.62Zm-1.4,35.31c-.99,2.25-2.32,4.05-3.99,5.4-1.67,1.35-3.6,2.31-5.79,2.9-2.19,.58-4.46,.88-6.8,.88h-6.14v-35.09h6.14c2.34,0,4.61,.29,6.8,.88,2.19,.58,4.12,1.55,5.79,2.89,1.67,1.35,3,3.14,3.99,5.4,.99,2.25,1.49,5.04,1.49,8.38s-.5,6.13-1.49,8.38Z"/><path class="cls-5" d="M344.18,131.8c3.51-1.7,6.17-4.05,7.98-7.06,1.81-3.01,2.72-6.48,2.72-10.4s-.91-7.47-2.72-10.48c-1.81-3.01-4.47-5.37-7.98-7.06-3.51-1.7-7.9-2.54-13.16-2.54h-22.37v61.41h14.83v-21.32h4.47l13.25,21.32h17.37l-16.01-23.17c.56-.21,1.1-.44,1.62-.69Zm-20.71-25h6.49c1.99,0,3.7,.32,5.13,.97,1.43,.64,2.53,1.56,3.29,2.76,.76,1.2,1.14,2.65,1.14,4.34s-.38,3.14-1.14,4.34c-.76,1.2-1.86,2.11-3.29,2.72-1.43,.61-3.15,.92-5.13,.92h-6.49v-16.06Z"/><path class="cls-5" d="M418.58,101.79c-2.98-2.86-6.48-5.07-10.48-6.62-4.01-1.55-8.38-2.32-13.12-2.32s-9.04,.78-13.07,2.32c-4.04,1.55-7.54,3.76-10.53,6.62-2.98,2.87-5.31,6.26-6.97,10.18-1.67,3.92-2.5,8.25-2.5,12.98s.8,9.1,2.41,13.07c1.61,3.98,3.89,7.43,6.84,10.35,2.95,2.93,6.45,5.19,10.48,6.8,4.04,1.61,8.48,2.41,13.34,2.41s9.21-.8,13.25-2.41c4.04-1.61,7.53-3.87,10.48-6.8,2.95-2.92,5.23-6.37,6.84-10.35,1.61-3.98,2.41-8.33,2.41-13.07s-.82-9.07-2.46-12.98c-1.64-3.92-3.95-7.31-6.93-10.18Zm-8.47,32.77c-1.43,2.78-3.45,4.96-6.05,6.54-2.6,1.58-5.63,2.37-9.08,2.37s-6.57-.79-9.17-2.37c-2.6-1.58-4.62-3.76-6.05-6.54-1.43-2.78-2.15-5.98-2.15-9.61s.72-6.83,2.15-9.61c1.43-2.78,3.45-4.96,6.05-6.54,2.6-1.58,5.66-2.37,9.17-2.37s6.64,.79,9.21,2.37c2.57,1.58,4.56,3.76,5.97,6.54,1.4,2.78,2.11,5.98,2.11,9.61s-.72,6.83-2.15,9.61Z"/><path class="cls-5" d="M471.88,96.66c-3.54-1.61-7.91-2.41-13.12-2.41h-21.32v61.41h14.83v-21.32h6.49c5.21,0,9.58-.8,13.12-2.41,3.54-1.61,6.21-3.92,8.03-6.93,1.81-3.01,2.72-6.56,2.72-10.66s-.91-7.81-2.72-10.79-4.49-5.28-8.03-6.89Zm-6.1,23.47c-1.7,1.35-4.04,2.02-7.02,2.02h-6.49v-15.7h6.49c2.98,0,5.32,.67,7.02,2.02,1.7,1.35,2.55,3.31,2.55,5.88s-.85,4.45-2.55,5.79Z"/><path class="cls-5" d="M526.54,96.66c-3.54-1.61-7.91-2.41-13.12-2.41h-21.32v61.41h14.83v-21.32h6.49c5.21,0,9.58-.8,13.12-2.41,3.54-1.61,6.21-3.92,8.03-6.93,1.81-3.01,2.72-6.56,2.72-10.66s-.91-7.81-2.72-10.79-4.49-5.28-8.03-6.89Zm-6.1,23.47c-1.7,1.35-4.04,2.02-7.02,2.02h-6.49v-15.7h6.49c2.98,0,5.32,.67,7.02,2.02,1.7,1.35,2.55,3.31,2.55,5.88s-.85,4.45-2.55,5.79Z"/><polygon class="cls-5" points="556.58 94.25 546.76 94.25 546.76 155.66 556.58 155.66 560.97 155.66 587.55 155.66 587.55 143.47 560.97 143.47 560.97 129.34 585.8 129.34 585.8 117.41 560.97 117.41 560.97 106.44 587.55 106.44 587.55 94.25 560.97 94.25 556.58 94.25"/><path class="cls-5" d="M632.21,155.66h17.37l-16.01-23.17c.56-.21,1.1-.44,1.62-.69,3.51-1.7,6.17-4.05,7.98-7.06,1.81-3.01,2.72-6.48,2.72-10.4s-.91-7.47-2.72-10.48c-1.81-3.01-4.47-5.37-7.98-7.06-3.51-1.7-7.9-2.54-13.16-2.54h-22.37v61.41h14.83v-21.32h4.47l13.25,21.32Zm-17.72-48.87h6.49c1.99,0,3.7,.32,5.13,.97,1.43,.64,2.53,1.56,3.29,2.76,.76,1.2,1.14,2.65,1.14,4.34s-.38,3.14-1.14,4.34c-.76,1.2-1.86,2.11-3.29,2.72-1.43,.61-3.15,.92-5.13,.92h-6.49v-16.06Z"/></g></g></g></svg>