<?xml version="1.0" encoding="UTF-8"?><svg id="_레이어_2" xmlns="http://www.w3.org/2000/svg" xmlns:xlink="http://www.w3.org/1999/xlink" viewBox="0 0 60 46.85"><defs><style>.cls-1{fill:url(#_무제_그라디언트_255);}.cls-2{fill:url(#_무제_그라디언트_255-14);}.cls-3{fill:url(#_무제_그라디언트_255-9);}.cls-4{fill:url(#_무제_그라디언트_255-11);}.cls-5{fill:url(#_무제_그라디언트_255-3);}.cls-6{fill:url(#_무제_그라디언트_255-5);}.cls-7{fill:url(#_무제_그라디언트_255-16);}.cls-8{fill:url(#_무제_그라디언트_253);}.cls-9{fill:url(#_무제_그라디언트_255-2);}.cls-10{fill:url(#_무제_그라디언트_255-10);}.cls-11{fill:url(#_무제_그라디언트_255-15);}.cls-12{fill:url(#_무제_그라디언트_255-13);}.cls-13{fill:url(#_무제_그라디언트_255-7);}.cls-14{fill:url(#_무제_그라디언트_255-4);}.cls-15{fill:url(#_무제_그라디언트_255-12);}.cls-16{fill:url(#_무제_그라디언트_255-6);}.cls-17{fill:url(#_무제_그라디언트_255-8);}.cls-18{fill:url(#_무제_그라디언트_122);}</style><radialGradient id="_무제_그라디언트_255" cx=".67" cy="47" fx=".67" fy="47" r="59.95" gradientUnits="userSpaceOnUse"><stop offset="0" stop-color="#00f2ff"/><stop offset=".06" stop-color="#15d6ff"/><stop offset=".17" stop-color="#3aa8ff"/><stop offset=".28" stop-color="#5882ff"/><stop offset=".39" stop-color="#6f64ff"/><stop offset=".5" stop-color="#804fff"/><stop offset=".6" stop-color="#8a43ff"/><stop offset=".7" stop-color="#8e3fff"/><stop offset="1" stop-color="#e53fff"/></radialGradient><radialGradient id="_무제_그라디언트_255-2" cx=".67" cy="47" fx=".67" fy="47" r="59.95" xlink:href="#_무제_그라디언트_255"/><radialGradient id="_무제_그라디언트_255-3" cx=".67" cy="47" fx=".67" fy="47" r="59.95" xlink:href="#_무제_그라디언트_255"/><radialGradient id="_무제_그라디언트_255-4" cx=".67" cy="47" fx=".67" fy="47" r="59.95" xlink:href="#_무제_그라디언트_255"/><radialGradient id="_무제_그라디언트_255-5" cx=".67" cy="47" fx=".67" fy="47" r="59.95" xlink:href="#_무제_그라디언트_255"/><radialGradient id="_무제_그라디언트_255-6" cx=".67" cy="47" fx=".67" fy="47" r="59.95" xlink:href="#_무제_그라디언트_255"/><radialGradient id="_무제_그라디언트_255-7" cx=".67" cy="47" fx=".67" fy="47" r="59.95" xlink:href="#_무제_그라디언트_255"/><radialGradient id="_무제_그라디언트_255-8" cx=".67" cy="47" fx=".67" fy="47" r="59.95" xlink:href="#_무제_그라디언트_255"/><radialGradient id="_무제_그라디언트_255-9" cx=".67" cy="47" fx=".67" fy="47" r="59.95" xlink:href="#_무제_그라디언트_255"/><radialGradient id="_무제_그라디언트_255-10" cx=".67" cy="47" fx=".67" fy="47" r="59.95" xlink:href="#_무제_그라디언트_255"/><radialGradient id="_무제_그라디언트_255-11" cx=".67" cy="47" fx=".67" fy="47" r="59.95" xlink:href="#_무제_그라디언트_255"/><radialGradient id="_무제_그라디언트_255-12" cx=".67" cy="47" fx=".67" fy="47" r="59.95" xlink:href="#_무제_그라디언트_255"/><radialGradient id="_무제_그라디언트_255-13" cx=".67" cy="47" fx=".67" fy="47" r="59.95" xlink:href="#_무제_그라디언트_255"/><radialGradient id="_무제_그라디언트_255-14" cx=".67" cy="47" fx=".67" fy="47" r="59.95" xlink:href="#_무제_그라디언트_255"/><radialGradient id="_무제_그라디언트_255-15" cx=".67" cy="47" fx=".67" fy="47" r="59.95" xlink:href="#_무제_그라디언트_255"/><radialGradient id="_무제_그라디언트_255-16" cx=".67" cy="47" fx=".67" fy="47" r="59.95" xlink:href="#_무제_그라디언트_255"/><linearGradient id="_무제_그라디언트_122" x1="6.67" y1="30.74" x2="30" y2="30.74" gradientUnits="userSpaceOnUse"><stop offset="0" stop-color="#0092ff"/><stop offset=".19" stop-color="#0096fc"/><stop offset=".4" stop-color="#00a3f6"/><stop offset=".62" stop-color="#00baeb"/><stop offset=".85" stop-color="#00d8dd"/><stop offset="1" stop-color="#00f2d1"/></linearGradient><linearGradient id="_무제_그라디언트_253" x1="-2813.65" y1="30.74" x2="-2790.32" y2="30.74" gradientTransform="translate(-2760.32) rotate(-180) scale(1 -1)" gradientUnits="userSpaceOnUse"><stop offset="0" stop-color="#9533ff"/><stop offset=".42" stop-color="#574fff"/><stop offset="1" stop-color="#00baff"/></linearGradient></defs><g id="_레이어_1-2"><g><g><polygon class="cls-1" points="20.79 23.62 32.89 4.53 31.82 2.86 19.13 22.78 20.79 23.62"/><polygon class="cls-9" points="12.54 27.27 0 46.85 2.37 46.85 13.92 28.72 12.54 27.27"/><polygon class="cls-5" points="29.99 0 16.32 21.36 18.06 22.24 31.11 1.75 29.99 0"/><polygon class="cls-14" points="23.53 25 34.68 7.33 33.6 5.64 21.87 24.16 23.53 25"/><polygon class="cls-6" points="16.96 31.91 7.48 46.85 9.75 46.85 18.29 33.31 16.96 31.91"/><polygon class="cls-16" points="26.36 26.43 30.02 20.6 30.03 20.62 36.56 10.26 35.39 8.44 24.61 25.54 26.36 26.43"/><polygon class="cls-13" points="19.14 34.2 11.16 46.85 13.48 46.85 20.54 35.66 19.14 34.2"/><polygon class="cls-17" points="14.78 29.62 3.8 46.85 6.06 46.85 16.1 31.01 14.78 29.62"/><g><polygon class="cls-3" points="45.22 29.62 43.9 31.01 53.94 46.85 56.2 46.85 45.22 29.62 45.22 29.62"/><polygon class="cls-10" points="39.44 35.68 46.42 46.85 48.84 46.85 40.86 34.2 39.44 35.68"/><polygon class="cls-4" points="41.71 33.31 50.25 46.85 52.52 46.85 43.04 31.91 41.71 33.31"/><polygon class="cls-15" points="57.63 46.85 60 46.85 47.45 27.28 46.08 28.72 46.08 28.72 57.63 46.85"/><polygon class="cls-12" points="40.87 22.78 35.45 14.27 34.37 15.98 39.21 23.62 40.87 22.78"/><polygon class="cls-2" points="31.87 19.95 30.74 21.75 33.66 26.42 35.39 25.54 35.39 25.54 31.87 19.95"/><polygon class="cls-11" points="41.94 22.24 43.66 21.37 37.27 11.38 36.16 13.15 41.94 22.24 41.94 22.24"/><polygon class="cls-7" points="38.13 24.16 38.13 24.16 33.66 17.11 32.58 18.83 36.47 25 38.13 24.16"/></g></g><polygon class="cls-18" points="30 30.29 6.67 18.5 30 42.99 30 30.29"/><polygon class="cls-8" points="30 30.29 53.33 18.5 30 42.99 30 30.29"/></g></g></svg>