<svg width="20" height="21" viewBox="0 0 20 21" fill="none" xmlns="http://www.w3.org/2000/svg">
<path fill-rule="evenodd" clip-rule="evenodd" d="M10 18.5C14.4183 18.5 18 14.9183 18 10.5C18 6.08172 14.4183 2.5 10 2.5C5.58172 2.5 2 6.08172 2 10.5C2 14.9183 5.58172 18.5 10 18.5ZM10 20.5C15.5228 20.5 20 16.0228 20 10.5C20 4.97715 15.5228 0.5 10 0.5C4.47715 0.5 0 4.97715 0 10.5C0 16.0228 4.47715 20.5 10 20.5Z" fill="#FF962E"/>
<path d="M9 6.5C9 5.94772 9.44772 5.5 10 5.5V5.5C10.5523 5.5 11 5.94772 11 6.5V11.5C11 12.0523 10.5523 12.5 10 12.5V12.5C9.44772 12.5 9 12.0523 9 11.5V6.5Z" fill="#FF962E"/>
<path d="M11 14.5C11 15.0523 10.5523 15.5 10 15.5C9.44772 15.5 9 15.0523 9 14.5C9 13.9477 9.44772 13.5 10 13.5C10.5523 13.5 11 13.9477 11 14.5Z" fill="#FF962E"/>
</svg>
