<svg width="102" height="101" viewBox="0 0 102 101" fill="none" xmlns="http://www.w3.org/2000/svg">
<path fill-rule="evenodd" clip-rule="evenodd" d="M49.8318 5.62109C25.0437 5.62109 4.95312 25.7117 4.95312 50.4998C4.95312 75.2878 25.0437 95.3784 49.8318 95.3784C74.6199 95.3784 94.7104 75.2878 94.7104 50.4998C94.7104 45.8872 94.0217 41.4452 92.7291 37.2609L96.5509 36.0802C97.9615 40.6466 98.7104 45.4866 98.7104 50.4998C98.7104 77.497 76.829 99.3784 49.8318 99.3784C22.8346 99.3784 0.953125 77.497 0.953125 50.4998C0.953125 23.5025 22.8346 1.62109 49.8318 1.62109C62.3603 1.62109 73.7846 6.33982 82.4341 14.0852L79.7656 17.0651C71.82 9.94995 61.3364 5.62109 49.8318 5.62109Z" fill="#D6DAE1"/>
<path fill-rule="evenodd" clip-rule="evenodd" d="M101.063 18.3858L49.9042 70.1389L21.8164 43.1638L27.3578 37.3938L49.7583 58.9069L95.3731 12.7617L101.063 18.3858Z" fill="#2ECDFF"/>
</svg>
