<svg width="20" height="20" viewBox="0 0 20 20" fill="none" xmlns="http://www.w3.org/2000/svg">
<path fill-rule="evenodd" clip-rule="evenodd" d="M9 14C11.7614 14 14 11.7614 14 9C14 6.23858 11.7614 4 9 4C6.23858 4 4 6.23858 4 9C4 11.7614 6.23858 14 9 14ZM9 17C13.4183 17 17 13.4183 17 9C17 4.58172 13.4183 1 9 1C4.58172 1 1 4.58172 1 9C1 13.4183 4.58172 17 9 17Z" fill="#D6DAE1"/>
<path fill-rule="evenodd" clip-rule="evenodd" d="M17.4395 19.5608L11.9395 14.0608L14.0608 11.9395L19.5608 17.4395L17.4395 19.5608Z" fill="#D6DAE1"/>
</svg>
