<svg width="16" height="16" viewBox="0 0 16 16" fill="none" xmlns="http://www.w3.org/2000/svg">
<path d="M15.2638 1.36143L0.357602 7.11835C0.250077 7.15987 0.158006 7.23361 0.0940204 7.32948C0.030035 7.42535 -0.00273542 7.53865 0.0001788 7.65388C0.00309302 7.7691 0.0415397 7.8806 0.11029 7.97311C0.179039 8.06562 0.274731 8.13463 0.384217 8.17065L4.14913 9.39902L5.78694 14.4783C5.78627 14.483 5.78627 14.4879 5.78694 14.4926C5.79931 14.5156 5.81679 14.5354 5.83803 14.5505C5.85926 14.5656 5.8837 14.5756 5.90943 14.5797C5.93515 14.5839 5.96149 14.5821 5.9864 14.5744C6.01131 14.5668 6.03414 14.5535 6.0531 14.5356L8.62039 12.1137L12.6105 15.0454C12.6866 15.1008 12.7755 15.1362 12.8688 15.1482C12.9622 15.1603 13.0571 15.1486 13.1448 15.1144C13.2325 15.0801 13.3102 15.0243 13.3706 14.9522C13.4311 14.88 13.4724 14.7938 13.4908 14.7014L15.9947 1.97151C16.0078 1.87717 15.9966 1.78105 15.9623 1.6922C15.928 1.60335 15.8716 1.52469 15.7985 1.46365C15.7254 1.40262 15.6379 1.36121 15.5444 1.34332C15.4508 1.32544 15.3542 1.33167 15.2638 1.36143ZM6.16776 10.2875L5.8975 13.5017L4.62411 9.57098L12.1048 4.82746L6.16776 10.2875Z" fill="white" fill-opacity="0.55"/>
</svg>
