<svg width="48" height="49" viewBox="0 0 48 49" fill="none" xmlns="http://www.w3.org/2000/svg">
<path d="M12.2453 18.6941H43.0755V15.6947C43.0755 14.3699 41.9623 13.3026 40.6226 13.3026H22.1509L15.3774 8.92322C14.9434 8.68401 14.5094 8.5 14.0189 8.5H2.45283C1.11321 8.5 0 9.58565 0 10.8921V40.2967C0 40.4255 7.9434 21.5094 7.9434 21.5094C8.67925 19.8349 10.3396 18.6941 12.2453 18.6941Z" fill="#AFBFC6"/>
<path d="M47.9986 23.4956C47.9986 22.2444 47.0741 21.2139 45.7911 21.1035H12.2439C11.3194 21.1035 10.5269 21.6371 10.1495 22.4284L1.84766 42.0989H39.376L47.7345 24.5813C47.9231 24.2133 47.9797 23.8636 47.9797 23.4956H47.9986Z" fill="#AFBFC6"/>
</svg>
