<svg width="160" height="24" viewBox="0 0 160 24" fill="none" xmlns="http://www.w3.org/2000/svg">
<g clip-path="url(#clip0_377_7870)">
<path d="M31.0681 9.7941C31.0681 6.8269 31.0744 3.86006 31.0607 0.893593C31.0588 0.515209 31.1183 0.359644 31.5555 0.367034C34.2019 0.413962 36.8521 0.284632 39.4949 0.43835C41.2674 0.541815 42.8397 1.16888 43.8681 2.71826C44.7808 4.09433 44.9323 5.63373 44.6936 7.23041C44.4035 9.1711 43.3884 10.5575 41.5379 11.2965C40.6784 11.6402 39.7783 11.7917 38.8589 11.8039C37.5268 11.823 36.1944 11.8224 34.8622 11.802C34.5075 11.7961 34.4373 11.9107 34.4392 12.2377C34.4525 14.3938 34.4347 16.5499 34.4558 18.7061C34.4595 19.1129 34.3531 19.2371 33.9422 19.2193C33.1813 19.1847 32.4194 19.1847 31.6586 19.2193C31.2033 19.2415 31.0507 19.1365 31.0548 18.6421C31.0817 15.6934 31.0681 12.7439 31.0681 9.7941ZM34.4458 6.05091C34.4458 6.84426 34.4543 7.63761 34.441 8.43059C34.4373 8.69664 34.4728 8.83521 34.798 8.83004C36.181 8.8086 37.5656 8.83891 38.9491 8.80158C40.269 8.76611 41.1015 8.05369 41.3299 6.7977C41.3964 6.4293 41.3779 6.04131 41.3624 5.66329C41.3121 4.44352 40.606 3.61877 39.3958 3.43216C37.8328 3.19124 36.2538 3.37747 34.6834 3.32278C34.4007 3.31281 34.4469 3.50385 34.4469 3.6705C34.4451 4.46459 34.4458 5.25793 34.4458 6.05091ZM54.0157 17.8155C52.4844 19.4891 50.5918 19.7474 48.5568 19.4447C47.0426 19.2193 45.9037 18.4212 45.4474 16.9309C44.8118 14.8557 45.5183 12.8899 47.7254 11.9292C49.096 11.3324 50.5637 11.1081 52.0052 10.7818C52.4427 10.6832 52.872 10.5642 53.2707 10.351C53.7315 10.1041 53.9329 9.708 53.9189 9.20472C53.9041 8.70551 53.7023 8.28463 53.2223 8.08768C52.0451 7.6062 50.8611 7.63946 49.7193 8.19114C49.0997 8.49045 48.8998 9.09498 48.8477 9.73498C48.8218 10.0528 48.732 10.1802 48.3839 10.1662C47.6407 10.1395 46.8968 10.139 46.1535 10.1647C45.855 10.174 45.8154 10.0627 45.8413 9.80777C46.1247 7.06228 47.8891 5.68583 50.4713 5.39318C51.438 5.2838 52.3943 5.27678 53.3594 5.456C55.799 5.90902 56.8798 7.56001 56.9278 9.76971C56.9744 11.9066 56.9437 14.045 56.9482 16.1834C56.9482 16.3729 56.9415 16.564 56.9644 16.7517C57.0394 17.3607 57.2175 17.5366 57.8361 17.5196C58.1325 17.5111 58.2411 17.5802 58.2086 17.8772C58.1875 18.0646 58.2049 18.256 58.2049 18.4456C58.2049 19.1735 58.1203 19.2991 57.386 19.3557C56.8022 19.4004 56.2043 19.4248 55.626 19.352C54.7662 19.2448 54.2718 18.6643 54.0157 17.8155ZM53.9222 12.3452C52.8114 12.8071 51.6526 12.9838 50.5289 13.2905C49.9662 13.4438 49.4108 13.6411 48.9459 14.0162C48.3547 14.494 48.1371 15.2703 48.378 16.0208C48.5849 16.6638 49.1311 17.0484 49.9263 17.0883C50.2533 17.1046 50.5836 17.1031 50.9103 17.0809C52.7168 16.9553 53.8538 15.808 53.9192 14.0398C53.9388 13.4907 53.9222 12.9398 53.9222 12.3452ZM73.7541 17.8233C72.1862 19.495 70.288 19.7596 68.2309 19.427C66.7307 19.1846 65.6218 18.3838 65.1828 16.9139C64.5572 14.8165 65.2641 12.8844 67.4782 11.9232C68.7035 11.3911 70.0068 11.1454 71.3053 10.8808C71.8112 10.7774 72.3163 10.6669 72.7922 10.4596C73.4145 10.1887 73.6702 9.80556 73.6543 9.18847C73.6392 8.59576 73.338 8.17599 72.712 7.97535C71.7095 7.65424 70.6971 7.69636 69.7145 8.04851C68.9382 8.32676 68.6389 8.98819 68.582 9.75013C68.5557 10.0975 68.4356 10.1729 68.1149 10.1632C67.3722 10.1414 66.6276 10.1511 65.8838 10.1596C65.6606 10.1621 65.542 10.144 65.5734 9.85729C65.7674 8.05369 66.5153 6.57599 68.279 5.91124C70.57 5.04731 72.899 4.88177 75.0684 6.29479C76.2154 7.04232 76.6171 8.25914 76.6492 9.55835C76.7024 11.7466 76.6751 13.9371 76.6843 16.1265C76.6851 16.35 76.6969 16.574 76.7157 16.7968C76.7601 17.3178 77.0409 17.5846 77.5715 17.5229C77.8649 17.4893 77.9817 17.5731 77.9495 17.875C77.9277 18.0794 77.9185 18.2926 77.9507 18.4943C78.0308 18.9987 77.8339 19.2518 77.324 19.3202C76.6174 19.4155 75.9058 19.4495 75.2118 19.3202C74.4295 19.1742 73.9939 18.5989 73.7541 17.8233ZM73.6554 12.3375C72.572 12.8093 71.4601 12.9671 70.3859 13.2616C69.7548 13.4349 69.1289 13.63 68.623 14.0746C68.0598 14.5697 67.8862 15.3028 68.1308 16.0481C68.3721 16.7816 68.9574 17.0163 69.6432 17.085C69.968 17.1172 70.2998 17.102 70.6265 17.082C72.5018 16.9649 73.6369 15.7732 73.6543 13.9101C73.6591 13.4105 73.6554 12.9113 73.6554 12.3375ZM59.6512 8.75983C59.6512 6.13997 59.663 3.52011 59.6401 0.900244C59.636 0.457565 59.7635 0.346711 60.1873 0.369621C60.8598 0.405094 61.5368 0.406572 62.2093 0.368882C62.6387 0.345602 62.7543 0.466064 62.7532 0.9032C62.7362 6.00546 62.7422 11.1074 62.7425 16.2089C62.7425 16.3814 62.7396 16.5536 62.7451 16.7262C62.7636 17.344 62.9358 17.5336 63.5551 17.5196C63.8444 17.5125 63.9675 17.5713 63.9335 17.8743C63.9124 18.0616 63.9298 18.2534 63.9298 18.4426C63.9298 19.1724 63.8444 19.2991 63.1095 19.3557C62.5256 19.4011 61.9325 19.4037 61.3491 19.3583C60.5221 19.2932 59.8947 18.6067 59.748 17.6481C59.687 17.2392 59.6561 16.8263 59.6556 16.4129C59.6475 13.8621 59.6512 11.3113 59.6512 8.7602V8.75983Z" fill="#111111"/>
</g>
<g clip-path="url(#clip1_377_7870)">
<path d="M89.6878 8.2828C87.3761 7.70488 85.4665 7.27772 85.4665 5.26756C85.4665 3.70969 86.6474 2.88049 88.8837 2.88049C91.5221 2.88049 92.7533 4.06146 93.0297 6.22239H95.9193C95.6429 2.6041 92.9795 0.518555 88.8837 0.518555C85.0142 0.518555 82.602 2.30257 82.602 5.41832C82.602 8.8356 85.6926 9.7653 88.5068 10.494C91.7734 11.3232 93.5322 11.6498 93.5322 13.9364C93.5322 15.5696 92.6277 16.826 89.7632 16.826C86.3962 16.826 84.9639 15.1927 84.7629 12.7805H81.8984C82.0743 16.826 85.2906 19.1879 89.8386 19.1879C94.3112 19.1879 96.4219 16.8762 96.4219 13.7856C96.4219 9.99144 93.1553 9.16225 89.6878 8.2828ZM107.65 23.2836H110.137V6.02137H107.649V7.57925H107.599C106.921 6.57417 105.664 5.64447 103.654 5.64447C100.387 5.64447 97.925 8.20742 97.925 12.4288C97.925 16.6501 100.387 19.1879 103.654 19.1879C105.664 19.1879 106.921 18.2331 107.599 17.3285H107.649V23.2836H107.65ZM104.056 17.1526C101.644 17.1526 100.488 14.9415 100.488 12.4288C100.488 9.91606 101.644 7.70488 104.056 7.70488C106.268 7.70488 107.65 9.51403 107.65 12.4288C107.65 15.3184 106.268 17.1526 104.056 17.1526ZM115.342 14.2128V6.02137H112.855V14.8912C112.855 17.8311 114.764 19.1879 117.126 19.1879C119.337 19.1879 120.669 18.208 121.347 17.228H121.398V18.8362H123.86V6.02137H121.398V13.8861C121.398 15.8209 120.041 17.1024 117.93 17.1024C116.096 17.1024 115.342 15.9465 115.342 14.2128ZM130.094 19.1879C132.18 19.1879 133.637 18.3587 134.492 17.027H134.542C134.667 18.4844 135.346 18.9618 136.552 18.9618C136.954 18.9618 137.381 18.9115 137.808 18.811V17.3034C137.658 17.3285 137.582 17.3285 137.507 17.3285C137.029 17.3285 136.904 16.8511 136.904 15.9214V10.0417C136.904 6.72493 134.793 5.61934 132.155 5.61934C128.235 5.61934 126.627 7.55412 126.501 10.0166H129.014C129.139 8.30793 129.818 7.60437 132.054 7.60437C133.939 7.60437 134.492 8.38331 134.492 9.31301C134.492 10.5694 133.26 10.8206 131.25 11.1975C128.059 11.8257 125.898 12.6549 125.898 15.5194C125.898 17.7054 127.531 19.1879 130.094 19.1879ZM130.647 17.2029C129.114 17.2029 128.486 16.5496 128.486 15.3435C128.486 14.0118 129.416 13.4087 131.677 12.9313C132.984 12.6549 134.089 12.3785 134.492 12.0016V13.8359C134.492 16.0722 132.858 17.2029 130.647 17.2029ZM139.8 6.02137V18.8362H142.263V12.2026C142.263 9.7653 143.871 8.08179 146.107 8.08179C146.384 8.08179 146.61 8.10691 146.936 8.15717V5.79523C146.545 5.74265 146.15 5.71747 145.755 5.71985C144.022 5.71985 142.966 6.85056 142.313 8.45869H142.263V6.02137H139.8ZM153.824 19.2131C157.191 19.2131 159.076 17.3537 159.729 14.8912H157.241C156.99 15.7455 156.136 17.2029 153.874 17.2029C151.337 17.2029 150.08 15.243 150.03 13.0821H159.88C159.905 12.881 159.905 12.5041 159.905 12.1524C159.905 8.1823 157.719 5.61934 153.824 5.61934C149.904 5.61934 147.492 8.38331 147.492 12.4036C147.492 16.3234 149.754 19.2131 153.824 19.2131ZM153.749 7.6295C155.935 7.6295 157.317 9.13712 157.317 11.1473H150.03C150.181 9.03661 151.688 7.6295 153.749 7.6295Z" fill="#111111"/>
<path d="M89.6854 8.28299L89.7308 8.10378H89.7301L89.6854 8.28299ZM93.0273 6.22258L92.844 6.24586L92.8647 6.40733H93.0273V6.22258ZM95.9169 6.22258V6.40733H96.1164L96.1013 6.20853L95.9169 6.22258ZM88.5044 10.4942L88.4582 10.673H88.459L88.5044 10.4942ZM84.7605 12.7807L84.9445 12.7656L84.9305 12.596H84.7605V12.7807ZM81.896 12.7807V12.596H81.7031L81.7113 12.7889L81.896 12.7807ZM89.7301 8.10378C88.5635 7.81186 87.5378 7.5665 86.7984 7.15154C86.4325 6.94609 86.148 6.70479 85.9537 6.40512C85.7604 6.10692 85.6488 5.73925 85.6488 5.26775H85.2793C85.2793 5.80133 85.4064 6.24068 85.6436 6.60613C85.8794 6.97011 86.2164 7.24835 86.6173 7.47375C87.4107 7.91902 88.4955 8.17583 89.6407 8.46221L89.7301 8.10378ZM85.6488 5.26775C85.6488 4.54239 85.92 4.00512 86.4399 3.64151C86.9706 3.27015 87.7813 3.06544 88.8813 3.06544V2.69592C87.7451 2.69592 86.8471 2.90581 86.2282 3.33888C85.5986 3.7786 85.2793 4.43523 85.2793 5.26775H85.6488ZM88.8813 3.06544C90.175 3.06544 91.094 3.35514 91.721 3.88281C92.3466 4.409 92.7095 5.19495 92.844 6.24586L93.2106 6.1993C93.0687 5.08927 92.6777 4.20428 91.959 3.59976C91.2422 2.99671 90.226 2.69592 88.8813 2.69592V3.06544ZM93.0273 6.40733H95.9169V6.03782H93.0273V6.40733ZM96.1013 6.20853C95.9594 4.35431 95.2034 2.8792 93.947 1.86969C92.6936 0.86313 90.9595 0.333984 88.8813 0.333984V0.703499C90.8989 0.703499 92.5443 1.21713 93.7157 2.15791C94.8841 3.09611 95.598 4.47255 95.7329 6.23662L96.1009 6.20853H96.1013ZM88.881 0.333984C86.921 0.333984 85.3063 0.785532 84.1767 1.65389C83.0411 2.52669 82.4148 3.80743 82.4148 5.41851H82.7843C82.7843 3.91385 83.3641 2.7447 84.4021 1.94655C85.4459 1.14396 86.972 0.703499 88.8813 0.703499V0.333984H88.881ZM82.4144 5.41851C82.4144 7.19736 83.2255 8.33842 84.3936 9.1181C85.5479 9.8889 87.0544 10.3098 88.4579 10.673L88.5502 10.3153C87.1394 9.94987 85.6935 9.54156 84.599 8.81103C83.5182 8.08937 82.784 7.05694 82.784 5.41851H82.4144ZM88.4586 10.673C90.1066 11.0917 91.3308 11.374 92.1519 11.8303C92.5558 12.0546 92.8495 12.3151 93.0446 12.6447C93.2394 12.9744 93.3447 13.389 93.3447 13.9366H93.7142C93.7142 13.3409 93.5997 12.8572 93.3628 12.4567C93.1256 12.0557 92.7753 11.7542 92.3315 11.507C91.4565 11.0215 90.168 10.7259 88.5495 10.315L88.4586 10.6734V10.673ZM93.3447 13.9366C93.3447 14.7192 93.1289 15.3832 92.5964 15.8558C92.0595 16.3318 91.1701 16.6414 89.7604 16.6414V17.0109C91.2155 17.0109 92.2103 16.6924 92.8418 16.1319C93.4777 15.568 93.7142 14.7868 93.7142 13.9366H93.3447ZM89.7604 16.6414C88.105 16.6414 86.955 16.2401 86.1953 15.5698C85.4367 14.8999 85.0421 13.9392 84.9441 12.7652L84.5761 12.7962C84.6796 14.0345 85.1008 15.0965 85.9507 15.8466C86.7991 16.5956 88.0484 17.0109 89.7604 17.0109V16.6414ZM84.7605 12.596H81.896V12.9655H84.7605V12.596ZM81.7113 12.7889C81.8018 14.8629 82.6738 16.5158 84.1124 17.6465C85.5472 18.7743 87.5319 19.3725 89.8362 19.3725V19.003C87.5925 19.003 85.695 18.4203 84.3407 17.3557C82.9901 16.2944 82.1661 14.7432 82.0808 12.7722L81.7113 12.7885V12.7889ZM89.8362 19.3729C92.1028 19.3729 93.7973 18.7868 94.9277 17.784C96.0603 16.7789 96.6042 15.3747 96.6042 13.7858H96.2347C96.2347 15.2875 95.7233 16.5841 94.6827 17.5076C93.6392 18.4336 92.0422 19.0034 89.8362 19.0034V19.3729ZM96.6042 13.7858C96.6042 12.8096 96.3936 12.0136 96.0148 11.3566C95.6364 10.7004 95.0958 10.1934 94.4518 9.78544C93.1714 8.97472 91.4561 8.54128 89.7308 8.10415L89.6399 8.46221C91.3826 8.90415 93.0339 9.32502 94.2537 10.0973C94.8597 10.4809 95.3526 10.9476 95.6948 11.5414C96.0366 12.1344 96.2347 12.865 96.2347 13.7858H96.6042ZM107.647 23.2838H107.462V23.4686H107.647V23.2838ZM110.135 23.2838V23.4686H110.319V23.2838H110.135ZM110.135 6.02156H110.319V5.8368H110.135V6.02156ZM107.647 6.02156V5.8368H107.462V6.02156H107.647ZM107.647 7.57943V7.76419H107.832V7.57943H107.647ZM107.597 7.57943L107.444 7.6829L107.499 7.76419H107.597V7.57943ZM107.597 17.3287V17.144H107.505L107.449 17.2179L107.597 17.3287ZM107.647 17.3287H107.832V17.144H107.647V17.3287ZM107.647 23.4686H110.135V23.0991H107.647V23.4686H107.647ZM110.319 23.2838V6.02156H109.95V23.2838H110.319ZM110.135 5.8368H107.647V6.20632H110.134V5.8368H110.135ZM107.462 6.02156V7.57943H107.832V6.02156H107.462ZM107.647 7.39468H107.597V7.76419H107.647V7.39468ZM107.75 7.47597C107.04 6.42359 105.728 5.4599 103.652 5.4599V5.82941C105.597 5.82941 106.797 6.72512 107.444 7.6829L107.75 7.47597H107.75ZM103.652 5.4599C101.968 5.4599 100.484 6.12207 99.424 7.33186C98.3649 8.54017 97.7386 10.2828 97.7386 12.4289H98.1081C98.1081 10.3538 98.713 8.70424 99.7018 7.57574C100.689 6.44872 102.07 5.82941 103.652 5.82941V5.4599H103.652ZM97.7382 12.4289C97.7382 14.5751 98.3646 16.3114 99.424 17.5135C100.484 18.7174 101.968 19.3729 103.652 19.3729V19.0034C102.069 19.0034 100.688 18.39 99.7011 17.2696C98.7126 16.1474 98.1077 14.5041 98.1077 12.4289H97.7382ZM103.652 19.3729C105.729 19.3729 107.037 18.3833 107.745 17.4396L107.449 17.2179C106.8 18.0833 105.595 19.0034 103.652 19.0034V19.3729ZM107.597 17.5135H107.647V17.144H107.597V17.5135ZM107.462 17.3287V23.2838H107.832V17.3287H107.462ZM104.054 16.9681C102.914 16.9681 102.077 16.4496 101.518 15.6293C100.954 14.8016 100.671 13.6605 100.671 12.4289H100.301C100.301 13.7101 100.595 14.9306 101.213 15.8374C101.835 16.7504 102.782 17.3376 104.054 17.3376V16.9681ZM100.67 12.4289C100.67 11.1974 100.954 10.0563 101.518 9.22895C102.076 8.40863 102.913 7.88983 104.054 7.88983V7.52031C102.782 7.52031 101.834 8.10747 101.212 9.02054C100.595 9.92696 100.301 11.1478 100.301 12.4289H100.67ZM104.054 7.88983C105.103 7.88983 105.946 8.31625 106.532 9.08595C107.122 9.86082 107.462 10.9982 107.462 12.4289H107.832C107.832 10.945 107.48 9.72041 106.826 8.86202C106.169 7.99847 105.215 7.52031 104.054 7.52031V7.88983ZM107.462 12.4289C107.462 13.8468 107.123 14.9845 106.532 15.7627C105.946 16.5357 105.102 16.9681 104.054 16.9681V17.3376C105.216 17.3376 106.169 16.8528 106.826 15.9863C107.48 15.1253 107.832 13.9007 107.832 12.4289H107.462ZM115.339 6.02156H115.524V5.8368H115.339V6.02156ZM112.852 6.02156V5.8368H112.667V6.02156H112.852ZM121.345 17.2282V17.0435H121.248L121.193 17.1229L121.345 17.2282ZM121.395 17.2282H121.58V17.0435H121.395V17.2282ZM121.395 18.8363H121.21V19.0211H121.395V18.8363ZM123.857 18.8363V19.0211H124.042V18.8363H123.857ZM123.857 6.02156H124.042V5.8368H123.857V6.02156ZM121.395 6.02156V5.8368H121.21V6.02156H121.395ZM115.524 14.213V6.02156H115.155V14.213H115.524ZM115.34 5.8368H112.852V6.20632H115.34V5.8368ZM112.667 6.02156V14.8914H113.037V6.02156H112.667ZM112.667 14.8914C112.667 16.4035 113.16 17.5308 113.978 18.2784C114.792 19.0237 115.909 19.3729 117.124 19.3729V19.0034C115.977 19.0034 114.957 18.6741 114.227 18.0057C113.499 17.3405 113.037 16.3192 113.037 14.8914H112.667ZM117.124 19.3729C119.397 19.3729 120.785 18.3623 121.497 17.3332L121.193 17.1229C120.548 18.0541 119.273 19.0034 117.124 19.0034V19.3729ZM121.345 17.413H121.395V17.0435H121.345V17.413ZM121.211 17.2282V18.8363H121.58V17.2282H121.211ZM121.395 19.0211H123.858V18.6516H121.395V19.0211ZM124.043 18.8363V6.02156H123.673V18.8363H124.043ZM123.858 5.8368H121.395V6.20632H123.858V5.8368ZM121.211 6.02156V13.8863H121.58V6.02156H121.211ZM121.211 13.8863C121.211 14.8086 120.888 15.5617 120.327 16.0849C119.765 16.6093 118.946 16.9178 117.928 16.9178V17.2873C119.02 17.2873 119.935 16.9551 120.579 16.355C121.224 15.7538 121.58 14.8988 121.58 13.8863H121.211ZM117.928 16.9178C117.052 16.9178 116.463 16.6436 116.088 16.1902C115.708 15.7306 115.524 15.0569 115.524 14.213H115.155C115.155 15.1028 115.348 15.8739 115.803 16.4256C116.264 16.9836 116.97 17.2873 117.928 17.2873V16.9178ZM134.489 17.0272V16.8424H134.388L134.334 16.9274L134.489 17.0272ZM134.539 17.0272L134.724 17.0113L134.709 16.8424H134.539V17.0272ZM137.806 18.8112L137.848 18.9912L137.991 18.9575V18.8112H137.806ZM137.806 17.3036H137.991V17.0856L137.776 17.1214L137.806 17.3036ZM126.499 10.0168L126.314 10.0071L126.304 10.2015H126.499V10.0168ZM129.011 10.0168V10.2015H129.183L129.196 10.0304L129.011 10.0168ZM131.248 11.1977L131.214 11.0163H131.212L131.248 11.1977ZM131.675 12.9315L131.713 13.1126L131.675 12.9315ZM134.489 12.0018H134.674V11.5754L134.363 11.8673L134.489 12.0018ZM130.092 19.3729C132.232 19.3729 133.752 18.5182 134.645 17.127L134.334 16.9274C133.518 18.1997 132.123 19.0034 130.092 19.0034V19.3729ZM134.489 17.212H134.539V16.8424H134.489V17.212ZM134.355 17.0431C134.42 17.795 134.631 18.3327 135.016 18.6786C135.401 19.0241 135.926 19.1467 136.549 19.1467V18.7772C135.967 18.7772 135.55 18.6612 135.263 18.4036C134.976 18.1465 134.784 17.7171 134.724 17.0113L134.355 17.0431ZM136.549 19.1467C136.967 19.1467 137.408 19.0946 137.848 18.9912L137.764 18.6313C137.366 18.7262 136.958 18.7752 136.549 18.7772V19.1467ZM137.991 18.8112V17.3036H137.621V18.8112H137.991ZM137.776 17.1214C137.638 17.1443 137.574 17.144 137.504 17.144V17.5135C137.586 17.5135 137.672 17.5135 137.837 17.4858L137.776 17.1214ZM137.504 17.144C137.417 17.144 137.361 17.1229 137.32 17.0922C137.277 17.0593 137.233 17.0035 137.196 16.9075C137.119 16.7068 137.086 16.3865 137.086 15.9216H136.717C136.717 16.3865 136.747 16.7696 136.852 17.0405C136.905 17.1794 136.983 17.3014 137.098 17.3875C137.214 17.4747 137.353 17.5135 137.504 17.5135V17.144ZM137.086 15.9216V10.0419H136.717V15.9216H137.086ZM137.086 10.0419C137.086 8.34175 136.543 7.17703 135.632 6.44281C134.729 5.71486 133.493 5.43477 132.152 5.43477V5.80429C133.45 5.80429 134.589 6.07699 135.4 6.73066C136.204 7.37879 136.717 8.42526 136.717 10.0419H137.086ZM132.152 5.43477C130.164 5.43477 128.733 5.92586 127.781 6.75542C126.828 7.58683 126.379 8.73787 126.314 10.0071L126.683 10.026C126.744 8.8332 127.162 7.78562 128.024 7.03403C128.888 6.28059 130.222 5.80429 132.152 5.80429V5.43477ZM126.499 10.2015H129.011V9.832H126.499V10.2015ZM129.196 10.0304C129.257 9.19237 129.452 8.65214 129.859 8.31144C130.272 7.96558 130.944 7.78932 132.052 7.78932V7.41981C130.923 7.41981 130.138 7.59532 129.621 8.0284C129.099 8.46627 128.891 9.13251 128.827 10.0031L129.196 10.0304ZM132.052 7.78932C132.973 7.78932 133.532 7.98036 133.859 8.25232C134.179 8.51837 134.304 8.88604 134.304 9.3132H134.674C134.674 8.81066 134.523 8.32401 134.096 7.96816C133.675 7.61823 133.015 7.41981 132.052 7.41981V7.78932ZM134.304 9.3132C134.304 9.59514 134.236 9.80724 134.115 9.97759C133.992 10.1498 133.805 10.2935 133.543 10.4184C133.01 10.6726 132.228 10.826 131.214 11.0163L131.282 11.3792C132.278 11.1926 133.116 11.0318 133.702 10.7521C133.999 10.6102 134.245 10.4317 134.416 10.1919C134.588 9.94987 134.674 9.65944 134.674 9.3132H134.304ZM131.212 11.0167C129.617 11.3308 128.244 11.7003 127.271 12.3676C126.78 12.7039 126.387 13.1177 126.119 13.6395C125.851 14.1609 125.711 14.7798 125.711 15.5196H126.08C126.08 14.8271 126.211 14.2684 126.448 13.8087C126.684 13.3498 127.031 12.9799 127.48 12.6725C128.384 12.0524 129.688 11.6932 131.284 11.3792L131.212 11.0163V11.0167ZM125.711 15.5196C125.711 16.6614 126.139 17.6306 126.91 18.312C127.68 18.9919 128.776 19.3729 130.092 19.3729V19.0034C128.845 19.0034 127.843 18.6431 127.155 18.0352C126.469 17.4292 126.08 16.5638 126.08 15.5196H125.711ZM130.645 17.0183C129.9 17.0183 129.413 16.8591 129.113 16.5886C128.817 16.3214 128.668 15.9161 128.668 15.3437H128.299C128.299 15.9774 128.465 16.5014 128.866 16.8628C129.263 17.2205 129.857 17.3878 130.645 17.3878V17.0183ZM128.668 15.3437C128.668 15.0326 128.723 14.7739 128.831 14.5529C128.938 14.3327 129.103 14.1398 129.341 13.9665C129.822 13.6144 130.586 13.3502 131.713 13.1122L131.637 12.7508C130.503 12.9902 129.671 13.2663 129.122 13.6683C128.844 13.8715 128.636 14.1091 128.499 14.3911C128.361 14.6726 128.299 14.9889 128.299 15.3437H128.668ZM131.713 13.1122C132.367 12.974 132.977 12.8343 133.475 12.681C133.965 12.5302 134.38 12.3573 134.615 12.1367L134.363 11.8669C134.196 12.0232 133.857 12.1769 133.367 12.3277C132.886 12.4755 132.29 12.6126 131.637 12.7508L131.713 13.1122ZM134.304 12.0018V13.8361H134.674V12.0018H134.304ZM134.304 13.8361C134.304 14.9051 133.916 15.6918 133.279 16.2157C132.636 16.743 131.721 17.0183 130.645 17.0183V17.3878C131.779 17.3878 132.786 17.0978 133.514 16.501C134.246 15.8998 134.674 15.0034 134.674 13.8361H134.304ZM139.798 6.02156V5.8368H139.613V6.02156H139.798ZM139.798 18.8363H139.613V19.0211H139.798V18.8363ZM142.26 18.8363V19.0211H142.445V18.8363H142.26ZM146.934 8.15736L146.906 8.3399L147.119 8.37278V8.15736H146.934ZM146.934 5.79542H147.119V5.63357L146.958 5.61214L146.934 5.79542ZM142.311 8.45888V8.64364H142.435L142.482 8.52835L142.311 8.45888ZM142.26 8.45888H142.076V8.64364H142.26V8.45888ZM142.26 6.02156H142.445V5.8368H142.26V6.02156ZM139.613 6.02156V18.8363H139.983V6.02156H139.613ZM139.798 19.0211H142.26V18.6516H139.798V19.0211ZM142.445 18.8363V12.2028H142.076V18.8363H142.445ZM142.445 12.2028C142.445 11.0252 142.833 10.0419 143.479 9.35495C144.123 8.6684 145.035 8.26673 146.105 8.26673V7.89722C144.938 7.89722 143.928 8.33731 143.209 9.10184C142.492 9.86599 142.076 10.9431 142.076 12.2028H142.445ZM146.105 8.26673C146.368 8.26673 146.583 8.29038 146.906 8.3399L146.962 7.97482C146.631 7.92382 146.394 7.89722 146.105 7.89722V8.26673ZM147.119 8.15736V5.79542H146.749V8.15736H147.119ZM146.958 5.61214C146.559 5.55852 146.156 5.53284 145.753 5.53528V5.90479C146.197 5.90479 146.541 5.92955 146.91 5.9787L146.958 5.61214ZM145.753 5.53528C144.842 5.53528 144.102 5.83385 143.506 6.34636C142.914 6.85556 142.473 7.56909 142.14 8.38941L142.482 8.52835C142.802 7.74054 143.214 7.08465 143.747 6.62646C144.276 6.17158 144.93 5.90479 145.753 5.90479V5.53528ZM142.311 8.27412H142.26V8.64364H142.311V8.27412ZM142.445 8.45888V6.02156H142.076V8.45888H142.445ZM142.26 5.8368H139.798V6.20632H142.26V5.8368ZM159.727 14.8914L159.905 14.9387L159.967 14.7066H159.727V14.8914ZM157.239 14.8914V14.7066H157.101L157.062 14.8393L157.239 14.8914ZM150.028 13.0823V12.8975H149.839L149.843 13.0867L150.028 13.0823ZM159.877 13.0823V13.267H160.041L160.061 13.1052L159.877 13.0823ZM157.314 11.1475V11.3322H157.499V11.1475H157.314ZM150.028 11.1475L149.844 11.1342L149.829 11.3322H150.028V11.1475ZM153.822 19.398C155.541 19.398 156.896 18.9228 157.907 18.1206C158.917 17.3187 159.57 16.2013 159.905 14.9391L159.548 14.8441C159.23 16.0439 158.614 17.0871 157.677 17.8309C156.741 18.574 155.47 19.0285 153.822 19.0285V19.398ZM159.727 14.7066H157.239V15.0762H159.727V14.7066ZM157.062 14.8393C156.943 15.2421 156.683 15.7871 156.186 16.2298C155.694 16.6695 154.959 17.0183 153.872 17.0183V17.3878C155.046 17.3878 155.87 17.008 156.432 16.5054C156.992 16.0059 157.284 15.395 157.416 14.9435L157.062 14.8393ZM153.872 17.0183C152.656 17.0183 151.76 16.5509 151.159 15.8344C150.554 15.1131 150.237 14.1261 150.212 13.0778L149.843 13.0867C149.869 14.1993 150.205 15.2727 150.876 16.0716C151.55 16.8753 152.551 17.3878 153.872 17.3878V17.0183ZM150.028 13.267H159.877V12.8975H150.028V13.267ZM160.061 13.1052C160.088 12.8897 160.087 12.4977 160.087 12.1526H159.718C159.718 12.511 159.717 12.8731 159.694 13.0593L160.061 13.1052ZM160.087 12.1526C160.087 10.135 159.532 8.4526 158.46 7.27311C157.385 6.09066 155.812 5.43477 153.822 5.43477V5.80429C155.727 5.80429 157.194 6.4295 158.186 7.52142C159.18 8.61592 159.718 10.2004 159.718 12.1526H160.087ZM153.822 5.43477C151.816 5.43477 150.182 6.14313 149.05 7.37916C147.919 8.61334 147.305 10.3574 147.305 12.4038H147.674C147.674 10.4302 148.266 8.78184 149.322 7.62895C150.376 6.47791 151.908 5.80429 153.822 5.80429V5.43477ZM147.305 12.4038C147.305 14.3981 147.881 16.1474 148.991 17.4011C150.104 18.6575 151.74 19.398 153.822 19.398V19.0285C151.833 19.0285 150.303 18.3242 149.268 17.1558C148.23 15.9844 147.674 14.3294 147.674 12.4038H147.305ZM153.746 7.81445C154.795 7.81445 155.638 8.17509 156.219 8.7641C156.8 9.35422 157.13 10.1853 157.13 11.1475H157.499C157.499 10.0995 157.139 9.17168 156.482 8.50544C155.825 7.8381 154.884 7.44493 153.746 7.44493V7.81445ZM157.314 10.9627H150.028V11.3322H157.314V10.9627ZM150.212 11.1608C150.356 9.1447 151.785 7.81445 153.746 7.81445V7.44493C151.587 7.44493 150.001 8.9289 149.844 11.1342L150.212 11.1608Z" fill="#111111"/>
</g>
<g clip-path="url(#clip2_377_7870)">
<path d="M0.0139958 13.9009C0.0479912 12.2318 0.340278 10.739 1.44697 9.51293C2.74693 8.07256 4.38942 7.60438 6.26915 7.82572C7.03995 7.91699 7.80522 8.05556 8.57603 8.15126C10.1479 8.34637 11.4198 7.33537 11.616 5.74942C11.786 4.37297 10.6908 3.08078 9.17945 2.95514C8.11487 2.86683 7.24134 3.37972 6.46684 4.04373C5.96984 4.46979 5.53233 4.96383 5.05455 5.41242C3.43755 6.92891 0.813626 6.32106 0.164019 4.26397C-0.196258 3.1229 0.0317326 2.06831 0.900093 1.22655C1.76771 0.385536 2.82157 0.204843 3.96891 0.559947C4.14813 0.615374 4.32513 0.695559 4.4855 0.792741C6.6224 2.09417 8.85279 2.09491 11.156 1.30858C11.888 1.05879 12.5749 0.693711 13.3346 0.515236C15.5499 -0.00578049 17.7814 1.0769 18.8308 3.19644C19.7539 5.05953 19.1704 7.53528 17.5046 8.89657C16.1189 10.0288 14.5478 10.1891 12.8683 9.81815C11.7897 9.57944 10.7063 9.37694 9.60402 9.27385C8.9958 9.21694 8.39016 9.24281 7.79894 9.37288C6.20855 9.72281 5.46582 11.1469 5.90961 12.9084C6.11838 13.7372 6.55367 14.4552 6.93982 15.202C7.73427 16.7395 7.2273 18.5199 5.75663 19.2386C4.63589 19.7862 3.50222 19.6295 2.4406 19.0309C1.0346 18.2383 0.439677 16.9062 0.153303 15.4078C0.0542729 14.8853 0.0527949 14.3447 0.0139958 13.9009Z" fill="#111111"/>
</g>
<defs>
<clipPath id="clip0_377_7870">
<rect width="46.9284" height="19.2148" fill="white" transform="translate(31.0391 0.360352)"/>
</clipPath>
<clipPath id="clip1_377_7870">
<rect width="78.3372" height="23.2794" fill="white" transform="translate(81.6641 0.360352)"/>
</clipPath>
<clipPath id="clip2_377_7870">
<rect width="19.5843" height="19.2148" fill="white" transform="translate(0 0.360352)"/>
</clipPath>
</defs>
</svg>
