<svg width="24" height="24" viewBox="0 0 24 24" fill="none" xmlns="http://www.w3.org/2000/svg">
<path d="M12 22C17.5228 22 22 17.5228 22 12C22 6.47715 17.5228 2 12 2C6.47715 2 2 6.47715 2 12C2 17.5228 6.47715 22 12 22Z" fill="white"/>
<path fill-rule="evenodd" clip-rule="evenodd" d="M14.5937 13.0646L16.1022 14.5687L12.0016 18.6649L7.9054 14.5687L9.41385 13.0646L12.0016 15.6524L14.5937 13.0646ZM12.0016 10.4725L13.5318 12.0026L12.0016 13.5327L10.4758 12.0069V12.0026L10.7446 11.7339L10.8746 11.6038L12.0016 10.4725ZM6.84341 10.4942L8.35187 12.0026L6.84341 13.5067L5.33496 11.9983L6.84341 10.4942ZM17.1598 10.4942L18.6683 12.0026L17.1598 13.5067L15.6514 11.9983L17.1598 10.4942ZM12.0016 5.33594L16.0979 9.43217L14.5894 10.9406L12.0016 8.34851L9.41385 10.9363L7.9054 9.43217L12.0016 5.33594Z" fill="#212121"/>
</svg>
