<svg width="56" height="56" viewBox="0 0 56 56" fill="none" xmlns="http://www.w3.org/2000/svg">
<path d="M27.9993 51.3337C40.886 51.3337 51.3327 40.887 51.3327 28.0003C51.3327 15.1137 40.886 4.66699 27.9993 4.66699C15.1127 4.66699 4.66602 15.1137 4.66602 28.0003C4.66602 40.887 15.1127 51.3337 27.9993 51.3337Z" fill="white"/>
<path fill-rule="evenodd" clip-rule="evenodd" d="M34.0511 30.4818L37.5708 33.9914L28.0028 43.5492L18.445 33.9914L21.9647 30.4818L28.0028 36.5199L34.0511 30.4818ZM28.0028 24.4335L31.5731 28.0038L28.0028 31.5741L24.4426 28.0139V28.0038L25.0697 27.3767L25.3731 27.0733L28.0028 24.4335ZM15.967 24.4841L19.4867 28.0038L15.967 31.5134L12.4473 27.9937L15.967 24.4841ZM40.0387 24.4841L43.5584 28.0038L40.0387 31.5134L36.5189 27.9937L40.0387 24.4841ZM28.0028 12.4482L37.5607 22.0061L34.041 25.5258L28.0028 19.4776L21.9647 25.5157L18.445 22.0061L28.0028 12.4482Z" fill="#212121"/>
</svg>
