<svg width="29" height="28" viewBox="0 0 29 28" fill="none" xmlns="http://www.w3.org/2000/svg">
<path fill-rule="evenodd" clip-rule="evenodd" d="M6.90146 0.903226H20.4109V6.32259C20.4109 6.57201 20.6125 6.77421 20.8612 6.77421H26.264V25.7419C26.264 26.4902 25.6592 27.0968 24.9131 27.0968H6.90146C6.15539 27.0968 5.55058 26.4902 5.55058 25.7419V21.6767H15.0088C16.0035 21.6767 16.8099 20.8679 16.8099 19.8703V8.12833C16.8099 7.13065 16.0035 6.32188 15.0088 6.32188H5.55058V2.25806C5.55058 1.50981 6.15539 0.903226 6.90146 0.903226ZM25.6272 5.87098L21.3115 1.54262V5.87098H25.6272ZM27.1646 25.7419V6.34832C27.1656 6.3312 27.1656 6.31409 27.1646 6.29706V6.13552L27.048 6.0186C27.0433 6.01339 27.0384 6.00827 27.0334 6.00326L21.1796 0.132288C21.1746 0.127264 21.1695 0.122377 21.1643 0.117628L21.047 0H20.8612H20.8611H6.90146C5.65801 0 4.65 1.01097 4.65 2.25806V6.32188H3.30117C2.30641 6.32188 1.5 7.13065 1.5 8.12833V19.8703C1.5 20.8679 2.30641 21.6767 3.30117 21.6767H4.65V25.7419C4.65 26.989 5.65801 28 6.90146 28H24.9131C26.1566 28 27.1646 26.989 27.1646 25.7419ZM10.7782 9.03438H13.2098L10.3726 14.0027L13.2092 18.9701H10.7776L9.15677 16.1318L7.53607 18.9699H5.1045L7.94099 14.0027L5.10391 9.03457H7.53548L9.15677 11.8737L10.7782 9.03438Z" fill="#1B1B1B"/>
<path d="M20.5898 16.6204C20.251 16.6204 19.9435 16.558 19.6673 16.4332C19.3911 16.3061 19.1718 16.1233 19.0093 15.885C18.8469 15.6444 18.7656 15.3539 18.7656 15.0134C18.7656 14.7138 18.826 14.4709 18.9467 14.2848C19.0673 14.0964 19.2286 13.9489 19.4306 13.8422C19.6325 13.7355 19.8553 13.6561 20.099 13.6039C20.345 13.5494 20.5921 13.5063 20.8405 13.4745C21.1654 13.4337 21.4288 13.403 21.6307 13.3826C21.835 13.3599 21.9835 13.3224 22.0763 13.2702C22.1715 13.218 22.2191 13.1272 22.2191 12.9979V12.9706C22.2191 12.6347 22.1251 12.3737 21.9371 12.1875C21.7514 12.0014 21.4694 11.9084 21.0911 11.9084C20.6989 11.9084 20.3914 11.9923 20.1686 12.1603C19.9458 12.3283 19.7891 12.5076 19.6986 12.6982L18.9188 12.4259C19.0581 12.1081 19.2437 11.8607 19.4758 11.6837C19.7102 11.5043 19.9655 11.3795 20.2417 11.3091C20.5202 11.2365 20.7941 11.2002 21.0633 11.2002C21.235 11.2002 21.4323 11.2206 21.6551 11.2615C21.8802 11.3001 22.0972 11.3806 22.3061 11.5032C22.5173 11.6258 22.6925 11.8108 22.8318 12.0582C22.971 12.3056 23.0406 12.637 23.0406 13.0523V16.4979H22.2191V15.7897H22.1773C22.1216 15.9032 22.0288 16.0246 21.8988 16.154C21.7688 16.2834 21.5959 16.3935 21.3801 16.4842C21.1642 16.575 20.9008 16.6204 20.5898 16.6204ZM20.7151 15.8986C21.0401 15.8986 21.3139 15.8362 21.5367 15.7114C21.7619 15.5865 21.9313 15.4254 22.045 15.2279C22.161 15.0304 22.2191 14.8228 22.2191 14.6049V13.8695C22.1842 13.9103 22.1077 13.9478 21.9893 13.9818C21.8733 14.0136 21.7386 14.042 21.5855 14.0669C21.4346 14.0896 21.2872 14.1101 21.1433 14.1282C21.0018 14.1441 20.8869 14.1577 20.7987 14.1691C20.5852 14.1963 20.3856 14.2406 20.1999 14.3018C20.0166 14.3609 19.868 14.4505 19.7543 14.5708C19.6429 14.6888 19.5872 14.85 19.5872 15.0543C19.5872 15.3335 19.6928 15.5446 19.904 15.6875C20.1175 15.8283 20.3879 15.8986 20.7151 15.8986Z" fill="#1B1B1B"/>
<path d="M25.0656 15.5446L25.0099 15.9123C24.9705 16.171 24.9101 16.4479 24.8289 16.743C24.75 17.0381 24.6676 17.3161 24.5817 17.5771C24.4959 17.8382 24.4251 18.0459 24.3694 18.2002H23.7427C23.7729 18.0549 23.8124 17.8631 23.8611 17.6248C23.9098 17.3865 23.9586 17.1198 24.0073 16.8247C24.0584 16.5319 24.1001 16.2323 24.1326 15.9259L24.1744 15.5446H25.0656Z" fill="#1B1B1B"/>
</svg>
