<svg width="29" height="28" viewBox="0 0 29 28" fill="none" xmlns="http://www.w3.org/2000/svg">
<path fill-rule="evenodd" clip-rule="evenodd" d="M6.90146 0.903226H20.4109V6.32259C20.4109 6.57201 20.6125 6.77421 20.8612 6.77421H26.264V25.7419C26.264 26.4902 25.6592 27.0968 24.9131 27.0968H6.90146C6.15539 27.0968 5.55058 26.4902 5.55058 25.7419V21.6767H15.0088C16.0035 21.6767 16.8099 20.8679 16.8099 19.8703V8.12833C16.8099 7.13065 16.0035 6.32188 15.0088 6.32188H5.55058V2.25806C5.55058 1.50981 6.15539 0.903226 6.90146 0.903226ZM25.6272 5.87098L21.3115 1.54262V5.87098H25.6272ZM27.1646 25.7419V6.34832C27.1656 6.3312 27.1656 6.31409 27.1646 6.29706V6.13552L27.048 6.0186C27.0433 6.01339 27.0384 6.00827 27.0334 6.00326L21.1796 0.132288C21.1746 0.127264 21.1695 0.122377 21.1643 0.117628L21.047 0H20.8612H20.8611H6.90146C5.65801 0 4.65 1.01097 4.65 2.25806V6.32188H3.30117C2.30641 6.32188 1.5 7.13065 1.5 8.12833V19.8703C1.5 20.8679 2.30641 21.6767 3.30117 21.6767H4.65V25.7419C4.65 26.989 5.65801 28 6.90146 28H24.9131C26.1566 28 27.1646 26.989 27.1646 25.7419ZM10.7782 9.03438H13.2098L10.3726 14.0027L13.2092 18.9701H10.7776L9.15677 16.1318L7.53607 18.9699H5.1045L7.94099 14.0027L5.10391 9.03457H7.53548L9.15677 11.8737L10.7782 9.03438Z" fill="#2ECDFF"/>
<path d="M20.5888 16.6234C20.25 16.6234 19.9425 16.5609 19.6663 16.4361C19.3901 16.309 19.1708 16.1263 19.0083 15.8879C18.8459 15.6474 18.7646 15.3568 18.7646 15.0164C18.7646 14.7167 18.825 14.4739 18.9457 14.2878C19.0664 14.0994 19.2277 13.9518 19.4296 13.8451C19.6315 13.7385 19.8543 13.659 20.098 13.6068C20.344 13.5523 20.5912 13.5092 20.8395 13.4774C21.1644 13.4366 21.4278 13.4059 21.6297 13.3855C21.834 13.3628 21.9825 13.3254 22.0754 13.2732C22.1705 13.221 22.2181 13.1302 22.2181 13.0008V12.9736C22.2181 12.6376 22.1241 12.3766 21.9361 12.1905C21.7504 12.0044 21.4684 11.9113 21.0901 11.9113C20.6979 11.9113 20.3904 11.9953 20.1676 12.1632C19.9448 12.3312 19.7881 12.5105 19.6976 12.7012L18.9178 12.4288C19.0571 12.111 19.2427 11.8636 19.4748 11.6866C19.7092 11.5073 19.9645 11.3824 20.2407 11.3121C20.5192 11.2394 20.7931 11.2031 21.0623 11.2031C21.234 11.2031 21.4313 11.2236 21.6541 11.2644C21.8792 11.303 22.0962 11.3836 22.3051 11.5061C22.5163 11.6287 22.6915 11.8137 22.8308 12.0611C22.97 12.3085 23.0397 12.6399 23.0397 13.0553V16.5008H22.2181V15.7926H22.1763C22.1206 15.9061 22.0278 16.0275 21.8978 16.1569C21.7678 16.2863 21.5949 16.3964 21.3791 16.4872C21.1633 16.578 20.8998 16.6234 20.5888 16.6234ZM20.7142 15.9016C21.0391 15.9016 21.313 15.8391 21.5358 15.7143C21.7609 15.5895 21.9303 15.4283 22.044 15.2308C22.1601 15.0334 22.2181 14.8257 22.2181 14.6078V13.8724C22.1833 13.9132 22.1067 13.9507 21.9883 13.9847C21.8723 14.0165 21.7377 14.0449 21.5845 14.0699C21.4336 14.0926 21.2863 14.113 21.1424 14.1311C21.0008 14.147 20.8859 14.1606 20.7977 14.172C20.5842 14.1992 20.3846 14.2435 20.1989 14.3048C20.0156 14.3638 19.8671 14.4534 19.7533 14.5737C19.6419 14.6918 19.5862 14.8529 19.5862 15.0572C19.5862 15.3364 19.6918 15.5475 19.903 15.6905C20.1165 15.8312 20.3869 15.9016 20.7142 15.9016Z" fill="#2ECDFF"/>
<path d="M25.0646 15.5475L25.0089 15.9152C24.9695 16.1739 24.9092 16.4509 24.8279 16.7459C24.749 17.041 24.6666 17.319 24.5807 17.5801C24.4949 17.8411 24.4241 18.0488 24.3684 18.2031H23.7418C23.7719 18.0579 23.8114 17.8661 23.8601 17.6277C23.9089 17.3894 23.9576 17.1227 24.0063 16.8276C24.0574 16.5348 24.0992 16.2352 24.1317 15.9288L24.1734 15.5475H25.0646Z" fill="#2ECDFF"/>
</svg>
