<svg width="20" height="20" viewBox="0 0 20 20" fill="none" xmlns="http://www.w3.org/2000/svg">
<path fill-rule="evenodd" clip-rule="evenodd" d="M4.4 4.79961H15.6C15.6764 4.79961 15.7512 4.80676 15.8237 4.82042L11.196 8.93386C10.514 9.54008 9.48632 9.54008 8.80433 8.93386L4.17664 4.82036C4.24901 4.80674 4.32367 4.79961 4.4 4.79961ZM3.26329 5.61404C3.22225 5.73505 3.2 5.86473 3.2 5.99961V13.9996C3.2 14.6624 3.73726 15.1996 4.4 15.1996H15.6C16.2627 15.1996 16.8 14.6624 16.8 13.9996V5.99961C16.8 5.86482 16.7778 5.73523 16.7368 5.61429L11.9933 9.83075C10.8566 10.8411 9.14375 10.8411 8.00709 9.83075L3.26329 5.61404ZM2 5.99961C2 4.67413 3.07452 3.59961 4.4 3.59961H15.6C16.9255 3.59961 18 4.67413 18 5.99961V13.9996C18 15.3251 16.9255 16.3996 15.6 16.3996H4.4C3.07452 16.3996 2 15.3251 2 13.9996V5.99961Z" fill="white" fill-opacity="0.35"/>
</svg>
