<svg width="20" height="20" viewBox="0 0 20 20" fill="none" xmlns="http://www.w3.org/2000/svg">
<g clip-path="url(#clip0_173_32806)">
<path d="M9.81007 6.34859C9.88007 6.34859 9.94007 6.32859 10.0001 6.32859C12.0201 6.32859 13.6701 7.96859 13.6701 9.99859C13.6701 10.0686 13.6501 10.1286 13.6501 10.1886L14.9301 11.4686C15.0701 10.9986 15.1701 10.5086 15.1701 9.99859C15.1701 8.72859 14.7001 7.58859 13.9401 6.68859C15.7301 7.67859 17.2001 9.08859 18.0401 10.0086C17.4401 10.6686 16.6101 11.4586 15.6401 12.1886L16.7101 13.2586C18.7301 11.6886 20.0001 9.99859 20.0001 9.99859C20.0001 9.99859 15.5201 4.05859 10.0001 4.05859C9.25007 4.05859 8.52007 4.17859 7.82007 4.36859L9.81007 6.35859V6.34859Z" fill="#76797B"/>
<path d="M2.6 1.53906L1.54 2.59906L4.7 5.75906C1.88 7.51906 0 9.99906 0 9.99906C0 9.99906 4.48 15.9391 10 15.9391C11.4 15.9391 12.73 15.5591 13.93 14.9891L17.39 18.4491L18.45 17.3891L2.6 1.53906ZM6.94 7.99906L12.01 13.0691C11.43 13.4491 10.75 13.6691 10.01 13.6691C7.99 13.6691 6.34 12.0291 6.34 9.99906C6.34 9.25906 6.56 8.56906 6.94 7.99906V7.99906ZM1.97 9.99906C2.86 9.02906 4.21 7.78906 5.8 6.85906L5.87 6.92906C5.23 7.78906 4.84 8.84906 4.84 9.99906C4.84 11.2691 5.31 12.4091 6.07 13.3091C4.28 12.3191 2.81 10.9091 1.97 9.98906V9.99906Z" fill="#76797B"/>
</g>
<defs>
<clipPath id="clip0_173_32806">
<rect width="20" height="20" fill="#76797B"/>
</clipPath>
</defs>
</svg>
