<svg width="44" height="44" viewBox="0 0 44 44" fill="none" xmlns="http://www.w3.org/2000/svg">
<rect width="44" height="44" rx="16" fill="#141414"/>
<path d="M29.2638 15.3601L14.3576 21.117C14.2501 21.1586 14.158 21.2323 14.094 21.3282C14.03 21.424 13.9973 21.5373 14.0002 21.6526C14.0031 21.7678 14.0415 21.8793 14.1103 21.9718C14.179 22.0643 14.2747 22.1333 14.3842 22.1693L18.1491 23.3977L19.7869 28.477C19.7863 28.4817 19.7863 28.4866 19.7869 28.4913C19.7993 28.5143 19.8168 28.534 19.838 28.5491C19.8593 28.5643 19.8837 28.5743 19.9094 28.5784C19.9352 28.5826 19.9615 28.5808 19.9864 28.5731C20.0113 28.5655 20.0341 28.5522 20.0531 28.5343L22.6204 26.1124L26.6105 29.0441C26.6866 29.0995 26.7755 29.1349 26.8688 29.1469C26.9622 29.159 27.0571 29.1473 27.1448 29.1131C27.2325 29.0788 27.3102 29.023 27.3706 28.9509C27.4311 28.8787 27.4724 28.7925 27.4908 28.7001L29.9947 15.9702C30.0078 15.8759 29.9966 15.7797 29.9623 15.6909C29.928 15.602 29.8716 15.5234 29.7985 15.4623C29.7254 15.4013 29.6379 15.3599 29.5444 15.342C29.4508 15.3241 29.3542 15.3304 29.2638 15.3601ZM20.1678 24.2862L19.8975 27.5004L18.6241 23.5697L26.1048 18.8261L20.1678 24.2862Z" fill="white" fill-opacity="0.55"/>
</svg>
