<svg width="20" height="20" viewBox="0 0 20 20" fill="none" xmlns="http://www.w3.org/2000/svg">
<path fill-rule="evenodd" clip-rule="evenodd" d="M13.4444 9.22222C13.4444 11.5541 11.5541 13.4444 9.22222 13.4444C6.89035 13.4444 5 11.5541 5 9.22222C5 6.89035 6.89035 5 9.22222 5C11.5541 5 13.4444 6.89035 13.4444 9.22222ZM12.858 14.2722C11.8353 15.0099 10.5795 15.4444 9.22222 15.4444C5.78578 15.4444 3 12.6587 3 9.22222C3 5.78578 5.78578 3 9.22222 3C12.6587 3 15.4444 5.78578 15.4444 9.22222C15.4444 10.5795 15.0099 11.8353 14.2722 12.858L17.7074 16.2932L16.2932 17.7074L12.858 14.2722Z" fill="#747474"/>
</svg>
