<svg width="24" height="24" viewBox="0 0 24 24" fill="none" xmlns="http://www.w3.org/2000/svg">
<g clip-path="url(#clip0_138_11638)">
<path d="M21 12.1615V16.2198C21 16.4731 20.9311 16.7218 20.8052 16.9406C20.6793 17.1594 20.498 17.3423 20.2792 17.4712L16.7634 19.4958C16.5461 19.6262 16.2973 19.6936 16.044 19.6936C15.7908 19.6936 15.542 19.6247 15.3247 19.4958L11.8089 17.4712C11.5916 17.3423 11.4103 17.1594 11.2844 16.9406C11.1585 16.7218 11.0911 16.4731 11.0896 16.2198V15.0808L12.8894 14.0363V16.016L16.0395 17.8443L19.1897 16.016V12.3683L16.0395 10.54L8.66031 14.8141C8.44001 14.9385 8.19274 15.0029 7.94097 15.0029C7.6892 15.0029 7.44043 14.937 7.22163 14.8141L3.70286 12.7805C3.48855 12.6501 3.31022 12.4657 3.18733 12.2469C3.06444 12.0281 3 11.7809 3 11.5291V7.47232C3 7.21905 3.06894 6.97028 3.19482 6.75148C3.32071 6.53268 3.50204 6.34985 3.71934 6.22096L7.23512 4.19632C7.45392 4.06744 7.70269 4 7.95446 4C8.20623 4 8.4565 4.06744 8.6753 4.19632L12.1911 6.22096C12.4084 6.34985 12.5897 6.53268 12.7156 6.75148C12.8415 6.97028 12.9089 7.21905 12.9104 7.47232V8.61127L11.0986 9.64982V7.68063L7.94846 5.8523L4.79985 7.68063V11.3238L7.94996 13.1521L15.3292 8.87653C15.5495 8.75214 15.7968 8.6877 16.05 8.6877C16.3033 8.6877 16.5506 8.75214 16.7694 8.87653L20.2852 10.9102C20.5025 11.039 20.6823 11.2219 20.8067 11.4407C20.9326 11.6595 20.9985 11.9083 21 12.16V12.1615Z" fill="white"/>
</g>
<defs>
<clipPath id="clip0_138_11638">
<rect width="18" height="15.6936" fill="white" transform="translate(3 4)"/>
</clipPath>
</defs>
</svg>
