<svg width="56" height="56" viewBox="0 0 56 56" fill="none" xmlns="http://www.w3.org/2000/svg">
<g clip-path="url(#clip0_202_24267)">
<path d="M49 28.3766V37.8459C49 38.4368 48.8391 39.0173 48.5454 39.5278C48.2517 40.0384 47.8286 40.465 47.318 40.7657L39.1146 45.4899C38.6075 45.7941 38.0271 45.9514 37.4361 45.9514C36.8451 45.9514 36.2647 45.7906 35.7576 45.4899L27.5542 40.7657C27.0471 40.465 26.624 40.0384 26.3303 39.5278C26.0365 39.0173 25.8792 38.4368 25.8757 37.8459V35.1883L30.0753 32.751V37.3703L37.4256 41.6364L44.7759 37.3703V28.8591L37.4256 24.593L20.2074 34.5659C19.6934 34.8561 19.1164 35.0065 18.5289 35.0065C17.9415 35.0065 17.361 34.8526 16.8505 34.5659L8.64 29.8207C8.13996 29.5165 7.72384 29.0864 7.4371 28.5759C7.15036 28.0653 7 27.4884 7 26.9009V17.4351C7 16.8441 7.16085 16.2637 7.45458 15.7531C7.74831 15.2426 8.17143 14.816 8.67846 14.5153L16.8819 9.79109C17.3925 9.49036 17.9729 9.33301 18.5604 9.33301C19.1479 9.33301 19.7318 9.49036 20.2424 9.79109L28.4458 14.5153C28.9529 14.816 29.376 15.2426 29.6697 15.7531C29.9635 16.2637 30.1208 16.8441 30.1243 17.4351V20.0926L25.8967 22.5159V17.9211L18.5464 13.655L11.1997 17.9211V26.4218L18.5499 30.6879L35.7681 20.7116C36.2822 20.4213 36.8591 20.271 37.4501 20.271C38.041 20.271 38.618 20.4213 39.1285 20.7116L47.332 25.4567C47.8391 25.7575 48.2587 26.1841 48.5489 26.6946C48.8426 27.2051 48.9965 27.7856 49 28.3731V28.3766Z" fill="white"/>
</g>
<defs>
<clipPath id="clip0_202_24267">
<rect width="42" height="36.6184" fill="white" transform="translate(7 9.33301)"/>
</clipPath>
</defs>
</svg>
